# xmcd
#
# Track frame offsets: 
#        150
#        18412
#        36295
#        54722
#        69417
#        81977
#        100182
#        116220
#        133857
#        151322
#
# Disc length: 2302 seconds
#
# Revision: 1
# Processed by: cddbd v1.5.2PL0 Copyright (c) Steve Scherf et al.
# Submitted via: ExactAudioCopy v0.95b4
#
DISCID=8808fc0a
DTITLE=จ๊อบ&จอย - หมอลำพันลาย  7
DYEAR=1900
DGENRE=Country
TTITLE0=คึดฮอดอ้ายแจ๊ค
TTITLE1=ไอ เลิฟ ยู
TTITLE2=อีหวึ่งผิดหวัง
TTITLE3=แอบมักพ่อฮ้าง
TTITLE4=คึดฮอดตี้อ้าย
TTITLE5=เจ็บแล้วต้องจำ
TTITLE6=จ๊อบ and จอย ส่งพร
TTITLE7=ชวนอ้ายเบิ่งโขง
TTITLE8=รีโมทกดหล่อ
TTITLE9=หัวอกเมียหลวง
EXTD=
EXTT0=
EXTT1=
EXTT2=
EXTT3=
EXTT4=
EXTT5=
EXTT6=
EXTT7=
EXTT8=
EXTT9=
PLAYORDER=
